<?xml version="1.0" encoding="UTF-8" standalone="no"?>
<svg
   xmlns:dc="http://purl.org/dc/elements/1.1/"
   xmlns:cc="http://creativecommons.org/ns#"
   xmlns:rdf="http://www.w3.org/1999/02/22-rdf-syntax-ns#"
   xmlns:svg="http://www.w3.org/2000/svg"
   xmlns="http://www.w3.org/2000/svg"
   id="svg8"
   version="1.1"
   viewBox="0 0 69.755859 7.5929999"
   height="7.5929999mm"
   width="69.755859mm">
  <defs
     id="defs2" />
  <metadata
     id="metadata5">
    <rdf:RDF>
      <cc:Work
         rdf:about="">
        <dc:format>image/svg+xml</dc:format>
        <dc:type
           rdf:resource="http://purl.org/dc/dcmitype/StillImage" />
        <dc:title></dc:title>
      </cc:Work>
    </rdf:RDF>
  </metadata>
  <g
     transform="translate(-22.666367,-40.780414)"
     id="layer1">
    <text
       id="text12"
       y="48.291664"
       x="21.922617"
       style="font-style:normal;font-weight:normal;font-size:10.58333302px;line-height:1.25;font-family:sans-serif;letter-spacing:0px;word-spacing:0px;fill:#000000;fill-opacity:1;stroke:#247efc;stroke-width:0.1;stroke-miterlimit:4;stroke-dasharray:none;stroke-opacity:0.57971012"
       xml:space="preserve"><tspan
         style="font-style:normal;font-variant:normal;font-weight:normal;font-stretch:normal;font-size:10.58333302px;font-family:'Bubbler One';-inkscape-font-specification:'Bubbler One, Normal';font-variant-ligatures:normal;font-variant-caps:normal;font-variant-numeric:normal;font-feature-settings:normal;text-align:start;writing-mode:lr-tb;text-anchor:start;fill:#000000;stroke:#247efc;stroke-width:0.1;stroke-linecap:square;stroke-linejoin:round;stroke-miterlimit:4;stroke-dasharray:none;stroke-opacity:0.57971012"
         y="48.291664"
         x="21.922617"
         id="tspan10">BIOCOSMOPOLITAN</tspan></text>
    <path
       transform="matrix(0.26458333,0,0,0.26458333,22.666367,40.780414)"
       id="path887"
       d="M 32.722534,26.33748 C 30.844108,25.733429 29.00933,23.485464 28.134548,20.716288 26.781472,16.433044 27.14786,9.4134301 28.90506,5.9540852 c 1.152424,-2.2687395 3.123028,-3.7155336 5.298598,-3.8901675 2.702931,-0.2169653 4.625614,0.9925427 5.933379,3.7325276 1.016561,2.1298631 1.412348,3.9906125 1.528023,7.1838197 0.25369,7.003126 -1.364295,11.712418 -4.487438,13.061099 -1.287882,0.556153 -3.242449,0.686067 -4.455088,0.296116 z"
       style="fill:none;stroke:#247efc;stroke-width:0.0738189;stroke-linecap:square;stroke-linejoin:round;stroke-miterlimit:4;stroke-dasharray:none;stroke-opacity:0.57971012" />
    <path
       transform="matrix(0.26458333,0,0,0.26458333,22.666367,40.780414)"
       id="path889"
       d="m 32.232791,25.968353 c -1.817452,-0.846319 -3.410405,-3.155653 -4.24259,-6.150564 -0.36004,-1.29573 -0.414355,-2.008726 -0.411295,-5.399126 0.0033,-3.601712 0.0438,-4.056427 0.520114,-5.832537 1.12499,-4.1949326 3.412076,-6.3766247 6.680276,-6.3724321 3.069433,0.00394 4.950806,1.8823879 6.199134,6.189504 0.402299,1.3880552 0.440447,1.9133831 0.429733,5.9178091 -0.01043,3.897727 -0.06024,4.571173 -0.440594,5.957031 -1.190396,4.337311 -3.131788,6.155963 -6.56552,6.150436 -0.830568,-0.0014 -1.479715,-0.139028 -2.169258,-0.460121 z"
       style="fill:#000000;stroke:none;stroke-width:0.0738189;stroke-linecap:square;stroke-linejoin:round;stroke-miterlimit:4;stroke-dasharray:none;stroke-opacity:0.57971012;fill-opacity:0" />
    <path
       transform="matrix(0.26458333,0,0,0.26458333,22.666367,40.780414)"
       id="path891"
       d="m 32.552733,26.176052 c -0.952017,-0.29866 -2.769204,-2.17327 -3.489079,-3.599332 -1.031208,-2.042812 -1.407314,-3.744421 -1.532548,-6.93367 -0.337393,-8.5921365 2.32253,-13.436198 7.375857,-13.4323842 2.92491,0.00221 4.990189,2.1174278 6.073987,6.2208657 0.519041,1.9651735 0.713785,7.0873485 0.366948,9.6515145 -0.638244,4.718545 -2.424558,7.546691 -5.142669,8.142031 -1.164144,0.254979 -2.751352,0.233676 -3.652496,-0.04903 z"
       style="fill:#000000;fill-opacity:0;stroke:none;stroke-width:0.0738189;stroke-linecap:square;stroke-linejoin:round;stroke-miterlimit:4;stroke-dasharray:none;stroke-opacity:0.57971012;opacity:0.953" />
  </g>
</svg>
