<svg xmlns="http://www.w3.org/2000/svg" xmlns:xlink="http://www.w3.org/1999/xlink" version="1.1" x="0px" y="0px" viewBox="0 0 100 125" enable-background="new 0 0 100 100" xml:space="preserve"><path fill="#000000" d="M86.015,42.78h-7.896V34.89H70.23v-7.908h-7.91v7.908H38.629v-7.908h-7.896v7.908h-7.891v7.891h-7.907  V26.981H7.043v31.602h7.893v7.896h7.907v7.908h7.891v-7.908H70.23v7.908h7.889v-7.908h7.896v-7.896h7.908V26.981h-7.908V42.78z   M38.629,50.688h-7.896V42.78h7.896V50.688z M70.23,50.688h-7.91V42.78h7.91V50.688z"/><rect x="70.23" y="19.089" fill="#000000" width="7.889" height="7.893"/><rect x="78.119" y="74.387" fill="#000000" width="7.896" height="7.891"/><rect x="22.843" y="19.089" fill="#000000" width="7.891" height="7.893"/><rect x="14.936" y="74.387" fill="#000000" width="7.907" height="7.891"/></svg>
